<?xml version="1.0" encoding="UTF-8" standalone="no"?>
<!DOCTYPE svg PUBLIC "-//W3C//DTD SVG 1.1//EN"
 "http://www.w3.org/Graphics/SVG/1.1/DTD/svg11.dtd">
<!-- Generated by graphviz version 12.1.1 (20240910.0053)
 -->
<!-- Title: INFRA Pages: 1 -->
<svg width="904pt" height="512pt"
 viewBox="0.00 0.00 904.31 512.00" xmlns="http://www.w3.org/2000/svg" xmlns:xlink="http://www.w3.org/1999/xlink">
<g id="graph0" class="graph" transform="scale(1 1) rotate(0) translate(4 508)">
<title>INFRA</title>
<polygon fill="white" stroke="none" points="-4,4 -4,-508 900.31,-508 900.31,4 -4,4"/>
<!-- vpc -->
<g id="node1" class="node">
<title>vpc</title>
<path fill="#e6e6e6" stroke="black" stroke-width="2" d="M241.72,-72C241.72,-72 136.93,-72 136.93,-72 130.93,-72 124.93,-66 124.93,-60 124.93,-60 124.93,-12 124.93,-12 124.93,-6 130.93,0 136.93,0 136.93,0 241.72,0 241.72,0 247.72,0 253.72,-6 253.72,-12 253.72,-12 253.72,-60 253.72,-60 253.72,-66 247.72,-72 241.72,-72"/>
<text text-anchor="middle" x="189.33" y="-40.2" font-family="Arial" font-size="14.00">vpc</text>
<text text-anchor="middle" x="189.33" y="-23.4" font-family="Arial" font-size="14.00">(AWS::EC2::VPC)</text>
</g>
<!-- loadBalancerSecurityGroup -->
<g id="node2" class="node">
<title>loadBalancerSecurityGroup</title>
<path fill="#e6e6e6" stroke="black" stroke-width="2" d="M334.07,-180C334.07,-180 168.58,-180 168.58,-180 162.58,-180 156.58,-174 156.58,-168 156.58,-168 156.58,-120 156.58,-120 156.58,-114 162.58,-108 168.58,-108 168.58,-108 334.07,-108 334.07,-108 340.07,-108 346.07,-114 346.07,-120 346.07,-120 346.07,-168 346.07,-168 346.07,-174 340.07,-180 334.07,-180"/>
<text text-anchor="middle" x="251.33" y="-148.2" font-family="Arial" font-size="14.00">loadBalancerSecurityGroup</text>
<text text-anchor="middle" x="251.33" y="-131.4" font-family="Arial" font-size="14.00">(AWS::EC2::SecurityGroup)</text>
</g>
<!-- loadBalancerSecurityGroup&#45;&gt;vpc -->
<g id="edge1" class="edge">
<title>loadBalancerSecurityGroup&#45;&gt;vpc</title>
<path fill="none" stroke="black" d="M230.68,-107.7C225.87,-99.48 220.68,-90.61 215.66,-82.03"/>
<polygon fill="black" stroke="black" points="218.72,-80.31 210.65,-73.45 212.67,-83.85 218.72,-80.31"/>
</g>
<!-- loadBalancer -->
<g id="node3" class="node">
<title>loadBalancer</title>
<path fill="#e78f81" stroke="black" stroke-width="2" d="M366.65,-288C366.65,-288 12,-288 12,-288 6,-288 0,-282 0,-276 0,-276 0,-228 0,-228 0,-222 6,-216 12,-216 12,-216 366.65,-216 366.65,-216 372.65,-216 378.65,-222 378.65,-228 378.65,-228 378.65,-276 378.65,-276 378.65,-282 372.65,-288 366.65,-288"/>
<text text-anchor="middle" x="189.33" y="-256.2" font-family="Arial" font-size="14.00">loadBalancer</text>
<text text-anchor="middle" x="189.33" y="-239.4" font-family="Arial" font-size="14.00">(AWS::ElasticLoadBalancingV2::ApplicationLoadBalancer)</text>
</g>
<!-- loadBalancer&#45;&gt;vpc -->
<g id="edge2" class="edge">
<title>loadBalancer&#45;&gt;vpc</title>
<path fill="none" stroke="black" d="M163.54,-215.84C156.93,-204.9 150.73,-192.43 147.33,-180 138.88,-149.13 138.88,-138.87 147.33,-108 149.75,-99.16 153.58,-90.31 157.97,-81.99"/>
<polygon fill="black" stroke="black" points="160.91,-83.9 162.79,-73.48 154.82,-80.45 160.91,-83.9"/>
</g>
<!-- loadBalancer&#45;&gt;loadBalancerSecurityGroup -->
<g id="edge3" class="edge">
<title>loadBalancer&#45;&gt;loadBalancerSecurityGroup</title>
<path fill="none" stroke="black" d="M209.97,-215.7C214.78,-207.48 219.97,-198.61 224.99,-190.03"/>
<polygon fill="black" stroke="black" points="227.98,-191.85 230.01,-181.45 221.94,-188.31 227.98,-191.85"/>
</g>
<!-- dnsRecord -->
<g id="node4" class="node">
<title>dnsRecord</title>
<path fill="#e6e6e6" stroke="black" stroke-width="2" d="M273.25,-396C273.25,-396 105.4,-396 105.4,-396 99.4,-396 93.4,-390 93.4,-384 93.4,-384 93.4,-336 93.4,-336 93.4,-330 99.4,-324 105.4,-324 105.4,-324 273.25,-324 273.25,-324 279.25,-324 285.25,-330 285.25,-336 285.25,-336 285.25,-384 285.25,-384 285.25,-390 279.25,-396 273.25,-396"/>
<text text-anchor="middle" x="189.33" y="-364.2" font-family="Arial" font-size="14.00">dnsRecord</text>
<text text-anchor="middle" x="189.33" y="-347.4" font-family="Arial" font-size="14.00">(AWS::Route53::RecordSet)</text>
</g>
<!-- dnsRecord&#45;&gt;loadBalancer -->
<g id="edge4" class="edge">
<title>dnsRecord&#45;&gt;loadBalancer</title>
<path fill="none" stroke="black" d="M189.33,-323.7C189.33,-315.93 189.33,-307.57 189.33,-299.43"/>
<polygon fill="black" stroke="black" points="192.83,-299.66 189.33,-289.66 185.83,-299.66 192.83,-299.66"/>
</g>
<!-- certificate -->
<g id="node5" class="node">
<title>certificate</title>
<path fill="#e6e6e6" stroke="black" stroke-width="2" d="M304.36,-504C304.36,-504 74.29,-504 74.29,-504 68.29,-504 62.29,-498 62.29,-492 62.29,-492 62.29,-444 62.29,-444 62.29,-438 68.29,-432 74.29,-432 74.29,-432 304.36,-432 304.36,-432 310.36,-432 316.36,-438 316.36,-444 316.36,-444 316.36,-492 316.36,-492 316.36,-498 310.36,-504 304.36,-504"/>
<text text-anchor="middle" x="189.33" y="-472.2" font-family="Arial" font-size="14.00">certificate</text>
<text text-anchor="middle" x="189.33" y="-455.4" font-family="Arial" font-size="14.00">(AWS::CertificateManager::Certificate)</text>
</g>
<!-- certificate&#45;&gt;dnsRecord -->
<g id="edge5" class="edge">
<title>certificate&#45;&gt;dnsRecord</title>
<path fill="none" stroke="black" d="M189.33,-431.7C189.33,-423.93 189.33,-415.57 189.33,-407.43"/>
<polygon fill="black" stroke="black" points="192.83,-407.66 189.33,-397.66 185.83,-407.66 192.83,-407.66"/>
</g>
<!-- utteranceQueueFifo -->
<g id="node6" class="node">
<title>utteranceQueueFifo</title>
<path fill="#cce0ac" stroke="black" stroke-width="2" d="M466.51,-504C466.51,-504 346.14,-504 346.14,-504 340.14,-504 334.14,-498 334.14,-492 334.14,-492 334.14,-444 334.14,-444 334.14,-438 340.14,-432 346.14,-432 346.14,-432 466.51,-432 466.51,-432 472.51,-432 478.51,-438 478.51,-444 478.51,-444 478.51,-492 478.51,-492 478.51,-498 472.51,-504 466.51,-504"/>
<text text-anchor="middle" x="406.33" y="-472.2" font-family="Arial" font-size="14.00">utteranceQueueFifo</text>
<text text-anchor="middle" x="406.33" y="-455.4" font-family="Arial" font-size="14.00">(AWS::SQS::Queue)</text>
</g>
<!-- websocketTable -->
<g id="node7" class="node">
<title>websocketTable</title>
<path fill="#ffcfb3" stroke="black" stroke-width="2" d="M676.01,-497.45C676.01,-501.07 635.81,-504 586.33,-504 536.84,-504 496.64,-501.07 496.64,-497.45 496.64,-497.45 496.64,-438.55 496.64,-438.55 496.64,-434.93 536.84,-432 586.33,-432 635.81,-432 676.01,-434.93 676.01,-438.55 676.01,-438.55 676.01,-497.45 676.01,-497.45"/>
<path fill="none" stroke="black" stroke-width="2" d="M676.01,-497.45C676.01,-493.84 635.81,-490.91 586.33,-490.91 536.84,-490.91 496.64,-493.84 496.64,-497.45"/>
<text text-anchor="middle" x="586.33" y="-472.2" font-family="Arial" font-size="14.00">websocketTable</text>
<text text-anchor="middle" x="586.33" y="-455.4" font-family="Arial" font-size="14.00">(AWS::DynamoDB::Table)</text>
</g>
<!-- websocketHandlerRole -->
<g id="node8" class="node">
<title>websocketHandlerRole</title>
<path fill="#e6e6e6" stroke="black" stroke-width="2" d="M863.31,-180C863.31,-180 727.34,-180 727.34,-180 721.34,-180 715.34,-174 715.34,-168 715.34,-168 715.34,-120 715.34,-120 715.34,-114 721.34,-108 727.34,-108 727.34,-108 863.31,-108 863.31,-108 869.31,-108 875.31,-114 875.31,-120 875.31,-120 875.31,-168 875.31,-168 875.31,-174 869.31,-180 863.31,-180"/>
<text text-anchor="middle" x="795.33" y="-148.2" font-family="Arial" font-size="14.00">websocketHandlerRole</text>
<text text-anchor="middle" x="795.33" y="-131.4" font-family="Arial" font-size="14.00">(AWS::IAM::Role)</text>
</g>
<!-- websocketHandler -->
<g id="node9" class="node">
<title>websocketHandler</title>
<path fill="#b7e0ff" stroke="black" stroke-width="2" d="M871.86,-288C871.86,-288 718.8,-288 718.8,-288 712.8,-288 706.8,-282 706.8,-276 706.8,-276 706.8,-228 706.8,-228 706.8,-222 712.8,-216 718.8,-216 718.8,-216 871.86,-216 871.86,-216 877.86,-216 883.86,-222 883.86,-228 883.86,-228 883.86,-276 883.86,-276 883.86,-282 877.86,-288 871.86,-288"/>
<text text-anchor="middle" x="795.33" y="-256.2" font-family="Arial" font-size="14.00">websocketHandler</text>
<text text-anchor="middle" x="795.33" y="-239.4" font-family="Arial" font-size="14.00">(AWS::Lambda::Function)</text>
</g>
<!-- websocketHandler&#45;&gt;websocketHandlerRole -->
<g id="edge6" class="edge">
<title>websocketHandler&#45;&gt;websocketHandlerRole</title>
<path fill="none" stroke="black" d="M795.33,-215.7C795.33,-207.93 795.33,-199.57 795.33,-191.43"/>
<polygon fill="black" stroke="black" points="798.83,-191.66 795.33,-181.66 791.83,-191.66 798.83,-191.66"/>
</g>
<!-- websocketApi -->
<g id="node10" class="node">
<title>websocketApi</title>
<path fill="#e78f81" stroke="black" stroke-width="2" d="M876.13,-396C876.13,-396 714.52,-396 714.52,-396 708.52,-396 702.52,-390 702.52,-384 702.52,-384 702.52,-336 702.52,-336 702.52,-330 708.52,-324 714.52,-324 714.52,-324 876.13,-324 876.13,-324 882.13,-324 888.13,-330 888.13,-336 888.13,-336 888.13,-384 888.13,-384 888.13,-390 882.13,-396 876.13,-396"/>
<text text-anchor="middle" x="795.33" y="-364.2" font-family="Arial" font-size="14.00">websocketApi</text>
<text text-anchor="middle" x="795.33" y="-347.4" font-family="Arial" font-size="14.00">(AWS::ApiGatewayV2::Api)</text>
</g>
<!-- websocketApi&#45;&gt;websocketHandler -->
<g id="edge7" class="edge">
<title>websocketApi&#45;&gt;websocketHandler</title>
<path fill="none" stroke="black" d="M795.33,-323.7C795.33,-315.93 795.33,-307.57 795.33,-299.43"/>
<polygon fill="black" stroke="black" points="798.83,-299.66 795.33,-289.66 791.83,-299.66 798.83,-299.66"/>
</g>
<!-- webSocketStageDev -->
<g id="node11" class="node">
<title>webSocketStageDev</title>
<path fill="#e78f81" stroke="black" stroke-width="2" d="M884.31,-504C884.31,-504 706.34,-504 706.34,-504 700.34,-504 694.34,-498 694.34,-492 694.34,-492 694.34,-444 694.34,-444 694.34,-438 700.34,-432 706.34,-432 706.34,-432 884.31,-432 884.31,-432 890.31,-432 896.31,-438 896.31,-444 896.31,-444 896.31,-492 896.31,-492 896.31,-498 890.31,-504 884.31,-504"/>
<text text-anchor="middle" x="795.33" y="-472.2" font-family="Arial" font-size="14.00">webSocketStageDev</text>
<text text-anchor="middle" x="795.33" y="-455.4" font-family="Arial" font-size="14.00">(AWS::ApiGatewayV2::Stage)</text>
</g>
<!-- webSocketStageDev&#45;&gt;websocketApi -->
<g id="edge8" class="edge">
<title>webSocketStageDev&#45;&gt;websocketApi</title>
<path fill="none" stroke="black" d="M795.33,-431.7C795.33,-423.93 795.33,-415.57 795.33,-407.43"/>
<polygon fill="black" stroke="black" points="798.83,-407.66 795.33,-397.66 791.83,-407.66 798.83,-407.66"/>
</g>
</g>
</svg>
